<svg width="170" height="36" viewBox="0 0 170 36" fill="none" xmlns="http://www.w3.org/2000/svg">
<g clip-path="url(#clip0_449619_364)">
<path d="M53.6495 19.1528V18.7308C53.6495 17.6706 53.2868 16.8592 52.5618 16.2966C51.8587 15.7123 50.9359 15.4202 49.7933 15.4202C48.9145 15.4202 48.2223 15.5717 47.7171 15.8746C47.2336 16.1559 46.7722 16.5887 46.3328 17.1729C46.201 17.346 46.0582 17.465 45.9043 17.5299C45.7506 17.5948 45.5418 17.6273 45.2781 17.6273H44.2895C44.0477 17.6273 43.828 17.5407 43.6303 17.3677C43.4545 17.1945 43.3777 16.989 43.3995 16.751C43.4656 16.1018 43.784 15.4635 44.3553 14.836C44.9486 14.1868 45.7286 13.6567 46.6953 13.2456C47.6621 12.8345 48.6948 12.6289 49.7933 12.6289C51.8367 12.6289 53.4845 13.1915 54.7369 14.3167C56.0113 15.4419 56.6486 17.0214 56.6486 19.0554V28.9548C56.6486 29.1928 56.5605 29.3985 56.3848 29.5715C56.209 29.7445 56.0004 29.8311 55.7586 29.8311H54.5392C54.2975 29.8311 54.0889 29.7445 53.913 29.5715C53.7373 29.3985 53.6495 29.1928 53.6495 28.9548V27.624C53.2979 28.4031 52.5507 29.0198 51.4082 29.4742C50.2657 29.9287 49.1231 30.1558 47.9806 30.1558C46.8601 30.1558 45.8605 29.961 44.9815 29.5715C44.1027 29.1603 43.4215 28.6086 42.9381 27.9162C42.4767 27.2237 42.2461 26.4449 42.2461 25.5792C42.2461 23.9564 42.8614 22.6906 44.0918 21.7818C45.3221 20.8513 46.959 20.2239 49.0024 19.8993L53.6495 19.1528ZM53.6495 21.7495L49.7604 22.366C48.3322 22.5824 47.2227 22.9395 46.4318 23.4371C45.6408 23.9132 45.2452 24.519 45.2452 25.2548C45.2452 25.7956 45.4978 26.2826 46.0033 26.7154C46.5085 27.148 47.2777 27.3644 48.3103 27.3644C49.8923 27.3644 51.1776 26.9209 52.1663 26.0337C53.1549 25.1466 53.6495 23.9889 53.6495 22.5608V21.7495Z" fill="#A0AEC0"/>
<path d="M64.456 28.9572C64.456 29.1953 64.3682 29.401 64.1923 29.574C64.0166 29.747 63.8078 29.8336 63.5661 29.8336H62.3468C62.1051 29.8336 61.8963 29.747 61.7206 29.574C61.5448 29.401 61.4569 29.1953 61.4569 28.9572V7.66541C61.4569 7.42739 61.5448 7.22182 61.7206 7.04871C61.8963 6.87561 62.1051 6.78906 62.3468 6.78906H63.5661C63.8078 6.78906 64.0166 6.87561 64.1923 7.04871C64.3682 7.22182 64.456 7.42739 64.456 7.66541V28.9572Z" fill="#A0AEC0"/>
<path d="M76.3276 27.3644C78.5248 27.3644 80.0078 26.5206 80.777 24.8327C80.9306 24.5083 81.0845 24.281 81.2384 24.1512C81.3921 24.0214 81.6009 23.9564 81.8646 23.9564H82.8532C83.095 23.9564 83.3036 24.043 83.4794 24.2162C83.6551 24.3676 83.743 24.5515 83.743 24.7679C83.743 25.5035 83.4465 26.2933 82.8532 27.1373C82.26 27.9812 81.4032 28.6952 80.2824 29.2794C79.1619 29.8636 77.8437 30.1558 76.3276 30.1558C74.7677 30.1558 73.4163 29.8311 72.274 29.1821C71.1314 28.5329 70.2524 27.6458 69.6373 26.5206C69.0221 25.3737 68.6816 24.0971 68.6156 22.6906C68.5935 22.431 68.5826 21.9334 68.5826 21.1975C68.5826 20.6783 68.5935 20.3104 68.6156 20.0941C68.8135 17.887 69.5713 16.091 70.8897 14.7062C72.2079 13.3213 74.0207 12.6289 76.3276 12.6289C77.8437 12.6289 79.151 12.921 80.2495 13.5052C81.3701 14.0678 82.2159 14.7711 82.7872 15.615C83.3805 16.4372 83.6991 17.2162 83.743 17.9519C83.765 18.1899 83.6771 18.3955 83.4794 18.5686C83.3036 18.7417 83.095 18.8282 82.8532 18.8282H81.8646C81.6009 18.8282 81.3921 18.7633 81.2384 18.6335C81.0845 18.5037 80.9306 18.2764 80.777 17.9519C80.0078 16.2641 78.5248 15.4202 76.3276 15.4202C75.1192 15.4202 74.0645 15.8205 73.1637 16.6211C72.2629 17.4217 71.7465 18.6335 71.6147 20.2563C71.5929 20.4944 71.5818 20.8838 71.5818 21.4248C71.5818 21.9225 71.5929 22.2903 71.6147 22.5283C71.7685 24.1512 72.2849 25.3628 73.1637 26.1635C74.0645 26.9641 75.1192 27.3644 76.3276 27.3644Z" fill="#A0AEC0"/>
<path d="M102.914 28.9572C102.914 29.1953 102.826 29.401 102.65 29.574C102.474 29.747 102.266 29.8336 102.024 29.8336H100.805C100.563 29.8336 100.354 29.747 100.179 29.574C100.003 29.401 99.9148 29.1953 99.9148 28.9572V20.3886C99.9148 18.7657 99.5083 17.5324 98.6955 16.6885C97.8825 15.8446 96.7509 15.4227 95.3008 15.4227C93.8727 15.4227 92.7411 15.8446 91.9061 16.6885C91.0933 17.5324 90.6869 18.7657 90.6869 20.3886V28.9572C90.6869 29.1953 90.5988 29.401 90.4231 29.574C90.2474 29.747 90.0386 29.8336 89.7969 29.8336H88.5775C88.3357 29.8336 88.1272 29.747 87.9513 29.574C87.7756 29.401 87.6877 29.1953 87.6877 28.9572V7.66541C87.6877 7.42739 87.7756 7.22182 87.9513 7.04871C88.1272 6.87561 88.3357 6.78906 88.5775 6.78906H89.7969C90.0386 6.78906 90.2474 6.87561 90.4231 7.04871C90.5988 7.22182 90.6869 7.42739 90.6869 7.66541V14.8384C91.1701 14.2109 91.8294 13.6916 92.6642 13.2805C93.5212 12.8477 94.5648 12.6313 95.7952 12.6313C97.1794 12.6313 98.4098 12.9235 99.4865 13.5077C100.563 14.0919 101.398 14.9358 101.991 16.0394C102.606 17.1212 102.914 18.4087 102.914 19.9017V28.9572Z" fill="#A0AEC0"/>
<path d="M114.463 12.6289C116.814 12.6289 118.671 13.3646 120.033 14.836C121.395 16.3074 122.076 18.3089 122.076 20.8406V21.717C122.076 21.955 121.988 22.1605 121.812 22.3337C121.637 22.5067 121.428 22.5933 121.186 22.5933H109.849V22.7879C109.893 24.2162 110.332 25.3412 111.167 26.1635C112.024 26.9641 113.123 27.3644 114.463 27.3644C115.562 27.3644 116.408 27.2237 117.001 26.9425C117.616 26.6613 118.165 26.261 118.649 25.7415C118.824 25.5685 118.978 25.4494 119.11 25.3846C119.264 25.3196 119.462 25.2871 119.703 25.2871H120.692C120.956 25.2871 121.175 25.3737 121.351 25.5469C121.527 25.7199 121.604 25.9255 121.582 26.1635C121.494 26.7477 121.164 27.3537 120.593 27.9812C120.044 28.587 119.242 29.1064 118.187 29.539C117.154 29.9503 115.913 30.1558 114.463 30.1558C113.057 30.1558 111.804 29.8421 110.706 29.2144C109.607 28.5654 108.728 27.6781 108.069 26.5531C107.432 25.4278 107.048 24.1621 106.916 22.7556C106.872 22.1064 106.85 21.6087 106.85 21.2625C106.85 20.9163 106.872 20.4186 106.916 19.7695C107.048 18.4279 107.432 17.2162 108.069 16.1343C108.728 15.0524 109.596 14.1977 110.673 13.5702C111.772 12.9427 113.035 12.6289 114.463 12.6289ZM119.11 19.8669V19.7695C119.11 18.4496 118.682 17.4001 117.825 16.6211C116.99 15.8205 115.869 15.4202 114.463 15.4202C113.189 15.4202 112.101 15.8205 111.2 16.6211C110.321 17.4217 109.871 18.4712 109.849 19.7695V19.8669H119.11Z" fill="#A0AEC0"/>
<path d="M129.051 14.836C129.579 14.1652 130.172 13.6351 130.831 13.2456C131.49 12.8345 132.369 12.6289 133.468 12.6289C136.038 12.6289 137.84 13.5702 138.873 15.4527C139.51 14.5439 140.235 13.8515 141.048 13.3754C141.861 12.8777 142.926 12.6289 144.245 12.6289C146.398 12.6289 147.991 13.2672 149.024 14.5439C150.078 15.8205 150.605 17.6273 150.605 19.9642V28.9548C150.605 29.1928 150.518 29.3985 150.342 29.5715C150.166 29.7445 149.957 29.8311 149.716 29.8311H148.496C148.254 29.8311 148.046 29.7445 147.87 29.5715C147.694 29.3985 147.606 29.1928 147.606 28.9548V20.2888C147.606 17.0431 146.31 15.4202 143.717 15.4202C142.531 15.4202 141.586 15.8097 140.883 16.5887C140.18 17.3677 139.828 18.5253 139.828 20.0616V28.9548C139.828 29.1928 139.74 29.3985 139.565 29.5715C139.389 29.7445 139.18 29.8311 138.939 29.8311H137.719C137.477 29.8311 137.269 29.7445 137.093 29.5715C136.917 29.3985 136.829 29.1928 136.829 28.9548V20.2888C136.829 17.0431 135.533 15.4202 132.94 15.4202C131.754 15.4202 130.809 15.8097 130.106 16.5887C129.403 17.3677 129.051 18.5253 129.051 20.0616V28.9548C129.051 29.1928 128.963 29.3985 128.788 29.5715C128.612 29.7445 128.403 29.8311 128.161 29.8311H126.942C126.7 29.8311 126.492 29.7445 126.316 29.5715C126.14 29.3985 126.052 29.1928 126.052 28.9548V13.8298C126.052 13.5918 126.14 13.3862 126.316 13.2131C126.492 13.04 126.7 12.9535 126.942 12.9535H128.161C128.403 12.9535 128.612 13.04 128.788 13.2131C128.963 13.3862 129.051 13.5918 129.051 13.8298V14.836Z" fill="#A0AEC0"/>
<path d="M159.836 35.2226C159.638 35.742 159.32 36.0016 158.88 36.0016H157.529C157.309 36.0016 157.122 35.9259 156.969 35.7745C156.815 35.6229 156.738 35.439 156.738 35.2226C156.738 35.1362 156.749 35.0602 156.771 34.9954L159.935 28.2118L153.409 13.9632C153.387 13.8983 153.376 13.8226 153.376 13.736C153.376 13.5196 153.453 13.3357 153.607 13.1842C153.761 13.0328 153.947 12.957 154.167 12.957H155.518C155.958 12.957 156.276 13.2167 156.474 13.736L161.55 24.7714L166.691 13.736C166.889 13.2167 167.207 12.957 167.647 12.957H168.998C169.218 12.957 169.404 13.0328 169.558 13.1842C169.712 13.3357 169.789 13.5196 169.789 13.736C169.789 13.8226 169.778 13.8983 169.756 13.9632L159.836 35.2226Z" fill="#A0AEC0"/>
<path d="M29.7854 19.0957L18.7188 0.30751C18.6653 0.214737 18.5877 0.137457 18.4939 0.083469C18.4001 0.0294807 18.2934 0.000693572 18.1847 1.23768e-05C18.0759 -0.000668818 17.9689 0.0267799 17.8744 0.0795888C17.78 0.132398 17.7014 0.208699 17.6466 0.300793L14.3323 5.93056C14.2238 6.11484 14.1666 6.32388 14.1666 6.53667C14.1666 6.74946 14.2238 6.95851 14.3323 7.14279L21.5484 19.3997C21.657 19.5841 21.8133 19.7373 22.0016 19.8437C22.1898 19.9501 22.4033 20.006 22.6206 20.0058H29.2493C29.3577 20.0055 29.4643 19.9772 29.5581 19.9239C29.6521 19.8706 29.73 19.7941 29.7844 19.7019C29.8387 19.6098 29.8673 19.5054 29.8675 19.399C29.8675 19.2926 29.8393 19.188 29.7854 19.0957Z" fill="#A0AEC0"/>
<path d="M0.777106 28.9151L11.8436 10.1269C11.8979 10.0348 11.9759 9.95843 12.0699 9.90531C12.1638 9.85218 12.2704 9.82422 12.3788 9.82422C12.4873 9.82422 12.5939 9.85218 12.6878 9.90531C12.7818 9.95843 12.8598 10.0348 12.9141 10.1269L16.2301 15.7516C16.3386 15.9362 16.3957 16.1455 16.3957 16.3586C16.3957 16.5716 16.3386 16.7809 16.2301 16.9655L9.01401 29.2225C8.90578 29.4068 8.74981 29.5601 8.56185 29.6664C8.37388 29.7728 8.16058 29.8287 7.94351 29.8285H1.31322C1.20399 29.8291 1.09658 29.8012 1.00189 29.7479C0.907203 29.6944 0.82863 29.6175 0.774158 29.5247C0.719687 29.4319 0.69126 29.3266 0.691779 29.2196C0.692299 29.1124 0.721736 29.0075 0.777106 28.9151Z" fill="#A0AEC0"/>
<path d="M12.9125 29.8237H35.0455C35.1541 29.8237 35.2606 29.7956 35.3547 29.7423C35.4487 29.689 35.5266 29.6123 35.5807 29.5201C35.6348 29.4279 35.6634 29.3232 35.6632 29.2169C35.663 29.1103 35.6344 29.0058 35.5799 28.9139L32.2689 23.2857C32.1603 23.1012 32.004 22.9481 31.8157 22.8418C31.6275 22.7352 31.414 22.6795 31.1968 22.6797H16.7646C16.5473 22.6795 16.3339 22.7352 16.1456 22.8418C15.9574 22.9481 15.8011 23.1012 15.6924 23.2857L12.3782 28.9139C12.3237 29.0058 12.295 29.1103 12.2948 29.2169C12.2947 29.3232 12.3231 29.4279 12.3772 29.5201C12.4314 29.6123 12.5094 29.689 12.6034 29.7423C12.6973 29.7956 12.8039 29.8237 12.9125 29.8237Z" fill="#A0AEC0"/>
</g>
<defs>
<clipPath id="clip0_449619_364">
<rect width="169.097" height="36" fill="white" transform="translate(0.691772)"/>
</clipPath>
</defs>
</svg>
