<svg width="153" height="44" viewBox="0 0 153 44" fill="none" xmlns="http://www.w3.org/2000/svg">
<g clip-path="url(#clip0_449856_347)">
<path d="M69.4088 32.3325L67.9824 28.0487H58.8535L57.4274 32.3325H53.2749L61.1674 9.44141H65.6685L73.561 32.3325H69.4088ZM59.9948 24.5169H66.8414L63.4814 14.3794H63.3546L59.9948 24.5169Z" fill="#A0AEC0"/>
<path d="M75.7837 32.3325V9.44141H79.5872V32.3325H75.7837Z" fill="#A0AEC0"/>
<path d="M92.1023 16.2773C94.0885 16.2773 95.7368 17.0404 97.0469 18.5665C98.3782 20.0926 99.0438 22.0764 99.0438 24.5182C99.0438 26.9381 98.3782 28.9111 97.0469 30.4371C95.7157 31.9632 94.0674 32.7262 92.1023 32.7262C91.0878 32.7262 90.1687 32.5191 89.3447 32.105C88.5204 31.6689 87.9076 31.1129 87.5061 30.4371H87.411V39.659H83.6074V16.6698H87.0624L87.221 18.6646H87.3478C87.7492 17.9451 88.3832 17.3674 89.2495 16.9314C90.1159 16.4954 91.0669 16.2773 92.1023 16.2773ZM91.2148 29.2271C92.3982 29.2271 93.3489 28.8022 94.0674 27.9519C94.807 27.1017 95.1768 25.9572 95.1768 24.5182C95.1768 23.0575 94.807 21.902 94.0674 21.0518C93.3489 20.2015 92.3982 19.7764 91.2148 19.7764C90.1371 19.7764 89.2284 20.1361 88.4888 20.8556C87.7703 21.5532 87.411 22.4144 87.411 23.439V25.5646C87.411 26.5892 87.7703 27.4614 88.4888 28.1807C89.2284 28.8785 90.1371 29.2271 91.2148 29.2271Z" fill="#A0AEC0"/>
<path d="M113.36 16.6698H116.815V32.3338H113.36L113.169 30.339H113.074C112.652 31.0586 112.007 31.6363 111.141 32.0724C110.296 32.5082 109.355 32.7262 108.32 32.7262C106.334 32.7262 104.675 31.9632 103.343 30.4371C102.012 28.9111 101.346 26.9381 101.346 24.5182C101.346 22.0983 102.012 20.1252 103.343 18.5992C104.675 17.0513 106.334 16.2773 108.32 16.2773C109.355 16.2773 110.296 16.4954 111.141 16.9314C112.007 17.3674 112.652 17.9451 113.074 18.6646H113.169L113.36 16.6698ZM113.011 25.5646V23.439C113.011 22.4144 112.641 21.5532 111.902 20.8556C111.183 20.1361 110.275 19.7764 109.176 19.7764C108.013 19.7764 107.062 20.2015 106.323 21.0518C105.583 21.902 105.213 23.0575 105.213 24.5182C105.213 25.9572 105.583 27.1017 106.323 27.9519C107.062 28.8022 108.013 29.2271 109.176 29.2271C110.275 29.2271 111.183 28.8785 111.902 28.1807C112.641 27.4614 113.011 26.5892 113.011 25.5646Z" fill="#A0AEC0"/>
<path d="M127.708 32.7262C125.447 32.7262 123.588 31.9632 122.13 30.4371C120.693 28.9111 119.974 26.9381 119.974 24.5182C119.974 22.0983 120.693 20.1252 122.13 18.5992C123.588 17.0513 125.458 16.2773 127.74 16.2773C129.663 16.2773 131.29 16.8224 132.621 17.9124C133.953 18.9807 134.756 20.4196 135.03 22.229L131.195 22.8504C131.047 21.9129 130.646 21.1717 129.991 20.6267C129.356 20.0598 128.596 19.7764 127.708 19.7764C126.588 19.7764 125.659 20.2124 124.919 21.0845C124.2 21.9347 123.841 23.0793 123.841 24.5182C123.841 25.9572 124.2 27.1017 124.919 27.9519C125.659 28.8022 126.599 29.2271 127.74 29.2271C128.628 29.2271 129.399 28.9657 130.054 28.4424C130.73 27.8973 131.153 27.156 131.322 26.2186L135.03 26.84C134.756 28.606 133.942 30.0339 132.59 31.1238C131.237 32.1922 129.61 32.7262 127.708 32.7262Z" fill="#A0AEC0"/>
<path d="M149.066 16.6698H152.521V32.3338H149.066L148.876 30.339H148.781C148.358 31.0586 147.714 31.6363 146.847 32.0724C146.002 32.5082 145.062 32.7262 144.026 32.7262C142.04 32.7262 140.381 31.9632 139.05 30.4371C137.718 28.9111 137.053 26.9381 137.053 24.5182C137.053 22.0983 137.718 20.1252 139.05 18.5992C140.381 17.0513 142.04 16.2773 144.026 16.2773C145.062 16.2773 146.002 16.4954 146.847 16.9314C147.714 17.3674 148.358 17.9451 148.781 18.6646H148.876L149.066 16.6698ZM148.717 25.5646V23.439C148.717 22.4144 148.348 21.5532 147.608 20.8556C146.89 20.1361 145.981 19.7764 144.882 19.7764C143.72 19.7764 142.769 20.2015 142.029 21.0518C141.29 21.902 140.92 23.0575 140.92 24.5182C140.92 25.9572 141.29 27.1017 142.029 27.9519C142.769 28.8022 143.72 29.2271 144.882 29.2271C145.981 29.2271 146.89 28.8785 147.608 28.1807C148.348 27.4614 148.717 26.5892 148.717 25.5646Z" fill="#A0AEC0"/>
<path fill-rule="evenodd" clip-rule="evenodd" d="M15.657 42.9709L17.3733 24.641H17.2172C15.8427 24.6412 14.7058 24.1443 13.6597 23.2396C12.6135 22.3349 11.9192 21.0814 11.7014 19.7042L14.9415 17.5785V17.5521C14.9414 16.1033 15.4925 14.7105 16.4797 13.6641C17.4671 12.6176 18.8143 11.9985 20.2405 11.9358V11.9299H21.204V8.50766C21.887 8.50768 22.548 8.75318 23.0697 9.20063C23.5914 9.64811 23.94 10.2686 24.0539 10.9521H24.0943V8.50766C24.6078 8.50768 25.112 8.64649 25.555 8.90982C25.9981 9.17317 26.364 9.55152 26.6152 10.006C26.8664 10.4605 26.9937 10.9746 26.9843 11.4956C26.9746 12.0166 26.8284 12.5256 26.5609 12.9702C27.4311 13.5474 28.1457 14.3357 28.6405 15.2638C29.135 16.1918 29.3938 17.2303 29.3933 18.2854V40.4075C29.3933 40.7318 29.5203 41.0427 29.746 41.2717C29.972 41.5011 30.2783 41.6297 30.5976 41.6297H32.026C30.0199 42.6632 27.8346 43.3889 25.5294 43.7464C35.9349 42.1329 43.906 33.0111 43.906 21.9999C43.906 9.84971 34.2004 0 22.2281 0C10.2558 0 0.550293 9.84971 0.550293 21.9999C0.550293 31.8255 6.89708 40.1466 15.657 42.9709ZM18.2066 18.116C18.0826 18.242 18.0128 18.4127 18.0125 18.5908L17.9518 19.2637H19.2765C19.6279 19.2637 19.9649 19.122 20.2133 18.8698C20.4617 18.6176 20.6013 18.2756 20.6013 17.9189H18.6744C18.4989 17.9192 18.3307 17.9901 18.2066 18.116Z" fill="#A0AEC0"/>
</g>
<defs>
<clipPath id="clip0_449856_347">
<rect width="152" height="44" fill="white" transform="translate(0.550293)"/>
</clipPath>
</defs>
</svg>
