<svg width="107" height="32" viewBox="0 0 107 32" fill="none" xmlns="http://www.w3.org/2000/svg">
<g clip-path="url(#clip0_456154_4167)">
<path fill-rule="evenodd" clip-rule="evenodd" d="M28.3109 15.9988C28.3109 23.7387 22.0236 30.0132 14.2677 30.0132C6.90945 30.0132 0.872952 24.3655 0.273438 17.1768H18.8353V14.8208H0.273438C0.872952 7.63209 6.90945 1.98438 14.2677 1.98438C22.0236 1.98438 28.3109 8.25884 28.3109 15.9988ZM80.3743 27.4743C85.2403 27.4743 88.4318 24.8524 88.4318 20.9039C88.4318 17.2397 86.0302 15.5023 82.3967 14.9022L79.1736 14.3651C76.7091 13.9545 75.0659 12.8805 75.0659 10.5114C75.0659 8.11072 76.8987 6.27862 80.3743 6.27862C83.7553 6.27862 85.4931 7.98438 85.6827 10.4166H88.1158C87.9263 7.19468 85.4615 4.32016 80.4059 4.32016C75.4134 4.32016 72.6646 7.13149 72.6646 10.6062C72.6646 14.302 75.1607 16.0077 78.5733 16.5763L81.8279 17.0817C84.5452 17.5555 86.0618 18.6611 86.0618 20.9987C86.0618 23.7468 83.8185 25.5157 80.4059 25.5157C76.8671 25.5157 74.6551 23.81 74.4655 20.9039H72.0642C72.2538 24.6945 75.1607 27.4743 80.3743 27.4743ZM44.5014 27.032H35.654V4.79399H44.1855C47.9457 4.79399 50.5681 7.00516 50.5681 10.543C50.5681 13.1016 49.1147 14.8074 46.7766 15.376V15.4707C49.5571 16.0077 51.2633 17.903 51.2633 20.8723C51.2633 24.6945 48.4512 27.032 44.5014 27.032ZM43.8695 14.5547C46.5554 14.5547 48.1984 13.1016 48.1984 10.8273V10.5114C48.1984 8.23707 46.5554 6.81561 43.8695 6.81561H38.024V14.5547H43.8695ZM44.1539 25.0103C47.0926 25.0103 48.8935 23.3994 48.8935 20.9355V20.6196C48.8935 18.061 47.061 16.5132 44.1223 16.5132H38.024V25.0103H44.1539ZM70.4006 27.032H67.8726L65.9769 20.9987H57.1294L55.2337 27.032H52.8321L60.1313 4.79399H63.0066L70.4006 27.032ZM61.6795 7.22625H61.49L57.7614 19.0086H65.3765L61.6795 7.22625ZM91.9912 27.032V4.79399H106.273V6.8472H94.3612V14.4915H105.326V16.5132H94.3612V24.9788H106.273V27.032H91.9912Z" fill="#A0AEC0"/>
</g>
<defs>
<clipPath id="clip0_456154_4167">
<rect width="106" height="32" fill="white" transform="translate(0.273438)"/>
</clipPath>
</defs>
</svg>
