<svg width="131" height="40" viewBox="0 0 131 40" fill="none" xmlns="http://www.w3.org/2000/svg">
<g clip-path="url(#clip0_452957_61360)">
<path d="M45.3879 19.7496C45.3502 18.8192 45.4971 17.8905 45.8201 17.0171C46.1431 16.1437 46.6359 15.3429 47.27 14.6609C47.9041 13.9789 48.667 13.4293 49.5146 13.0436C50.3622 12.658 51.2778 12.444 52.2086 12.4141H52.4978C56.095 12.4141 58.2181 14.5301 58.8459 17.0058L56.6099 17.7535C56.409 16.8309 55.8832 16.0113 55.1283 15.4442C54.3734 14.877 53.4398 14.6002 52.4978 14.6641C50.1701 14.6641 47.8354 16.364 47.8354 19.7919C47.8354 23.2199 50.1137 24.8563 52.526 24.8563C53.4727 24.8822 54.4007 24.5898 55.1616 24.0258C55.9224 23.4619 56.4721 22.6591 56.7228 21.7458L58.9164 22.4511C58.5377 23.8443 57.6955 25.0668 56.5286 25.9169C55.3618 26.7671 53.94 27.1941 52.4978 27.1275C50.645 27.1615 48.8546 26.4584 47.5201 25.1728C46.1855 23.8872 45.4161 22.1243 45.3809 20.2716C45.3738 20.1023 45.3809 19.926 45.3879 19.7496Z" fill="#A0AEC0"/>
<path d="M63.2676 26.8024H60.9541V12.3711H63.2676V18.0138C63.6035 17.6155 64.0259 17.2991 64.5026 17.0888C64.9794 16.8786 65.4978 16.78 66.0185 16.8006C68.4096 16.8006 69.5452 18.5146 69.5452 20.6518V26.8024H67.3163V21.0609C67.3831 20.5715 67.2549 20.0754 66.9593 19.6796C66.6638 19.2838 66.2246 19.0199 65.7363 18.9449C65.598 18.9307 65.4585 18.9307 65.3202 18.9449C64.7852 18.9449 64.2721 19.1574 63.8937 19.5357C63.5154 19.9141 63.3029 20.4272 63.3029 20.9622C63.2994 21.0209 63.2994 21.0798 63.3029 21.1385L63.2676 26.8024Z" fill="#A0AEC0"/>
<path d="M74.7368 21.2452L77.2196 20.8573C77.7839 20.7867 77.925 20.4975 77.925 20.1519C77.925 19.3337 77.3748 18.6778 76.0911 18.6778C75.6062 18.6386 75.1255 18.7921 74.7532 19.105C74.3808 19.418 74.1468 19.8651 74.102 20.3494V20.4552L71.986 19.9826C72.1623 18.3039 73.6858 16.8086 76.0699 16.8086C79.0606 16.8086 80.1962 18.5014 80.1962 20.4764V25.2939C80.1937 25.8159 80.2338 26.3372 80.3161 26.8527H78.2C78.1238 26.4435 78.093 26.0272 78.1083 25.6113C77.7872 26.1056 77.342 26.507 76.8172 26.7756C76.2925 27.0442 75.7065 27.1705 75.1177 27.1419C74.3135 27.2083 73.5158 26.953 72.8996 26.432C72.2834 25.911 71.899 25.1669 71.8308 24.3628C71.8308 24.3134 71.8308 24.2641 71.8308 24.2217C71.7955 22.4372 73.0722 21.478 74.7368 21.2452ZM77.9391 22.804V22.3596L75.4069 22.7405C75.0631 22.7514 74.7369 22.8948 74.4964 23.1406C74.2558 23.3864 74.1196 23.7156 74.1161 24.0595C74.1188 24.2299 74.1554 24.3981 74.2238 24.5542C74.2922 24.7103 74.391 24.8512 74.5145 24.9688C74.6379 25.0863 74.7835 25.1781 74.9428 25.2387C75.102 25.2994 75.2718 25.3277 75.4421 25.3221H75.548C75.8367 25.3523 76.1285 25.3251 76.4067 25.242C76.6848 25.159 76.9438 25.0217 77.1687 24.8381C77.3935 24.6546 77.5799 24.4283 77.7169 24.1724C77.854 23.9165 77.9391 23.636 77.9673 23.3471C77.9773 23.1653 77.9655 22.983 77.932 22.804H77.9391Z" fill="#A0AEC0"/>
<path d="M84.1318 12.1743C84.3306 12.1715 84.528 12.208 84.7127 12.2817C84.8974 12.3554 85.0656 12.4649 85.2079 12.6039C85.3501 12.7428 85.4635 12.9085 85.5415 13.0914C85.6195 13.2743 85.6606 13.4708 85.6624 13.6696C85.6624 13.9672 85.5744 14.2582 85.4094 14.5059C85.2445 14.7537 85.01 14.9471 84.7354 15.062C84.4608 15.1768 84.1584 15.2079 83.8662 15.1514C83.574 15.0948 83.305 14.9532 83.0931 14.7442C82.8812 14.5352 82.7358 14.2682 82.6752 13.9768C82.6146 13.6854 82.6415 13.3826 82.7525 13.1065C82.8635 12.8303 83.0536 12.5931 83.2991 12.4248C83.5445 12.2564 83.8342 12.1643 84.1318 12.1602V12.1743ZM83.0033 26.8454V17.0976H85.3168V26.8031L83.0033 26.8454Z" fill="#A0AEC0"/>
<path d="M90.5858 26.802H88.2793V17.0965H90.5293V18.3873C90.8227 17.8916 91.244 17.484 91.7491 17.2073C92.2542 16.9305 92.8245 16.7948 93.4001 16.8143C95.77 16.8143 96.9268 18.5283 96.9268 20.6655V26.802H94.6203V21.0605C94.6203 19.8685 94.0772 18.9022 92.6242 18.9022C92.3556 18.904 92.09 18.9587 91.8425 19.0633C91.595 19.1678 91.3706 19.32 91.1819 19.5112C90.9933 19.7025 90.8442 19.929 90.7431 20.1779C90.642 20.4268 90.591 20.6931 90.5928 20.9618C90.5928 21.0394 90.5928 21.1169 90.5928 21.1945L90.5858 26.802Z" fill="#A0AEC0"/>
<path d="M99.7197 26.8024V12.3711H102.033V26.8024H99.7197Z" fill="#A0AEC0"/>
<path d="M106.159 12.1758C106.457 12.1744 106.749 12.2615 106.997 12.4261C107.245 12.5906 107.439 12.8252 107.553 13.1C107.668 13.3748 107.698 13.6774 107.64 13.9695C107.583 14.2616 107.439 14.53 107.229 14.7405C107.018 14.951 106.75 15.0943 106.458 15.152C106.166 15.2098 105.863 15.1794 105.588 15.0648C105.313 14.9502 105.079 14.7566 104.914 14.5084C104.75 14.2603 104.663 13.9689 104.664 13.6711C104.668 13.2757 104.826 12.8975 105.106 12.6178C105.386 12.3382 105.764 12.1795 106.159 12.1758ZM105.024 26.8469V17.0991H107.316V26.8046L105.024 26.8469Z" fill="#A0AEC0"/>
<path d="M112.621 26.8019H110.308V17.0963H112.558V18.3871C112.852 17.892 113.273 17.4848 113.778 17.2082C114.283 16.9315 114.853 16.7954 115.428 16.8142C117.798 16.8142 118.955 18.5282 118.955 20.6654V26.8019H116.642V21.0604C116.708 20.5709 116.58 20.0748 116.285 19.679C115.989 19.2832 115.55 19.0194 115.062 18.9443C114.921 18.9302 114.779 18.9302 114.638 18.9443C114.1 18.9499 113.585 19.1679 113.206 19.5509C112.827 19.9339 112.614 20.451 112.614 20.9898C112.607 21.072 112.607 21.1546 112.614 21.2367L112.621 26.8019Z" fill="#A0AEC0"/>
<path d="M126.847 21.1949L130.917 26.8377H128.096L125.274 22.8384L124.082 24.0939V26.8024H121.79V12.3711H124.082V21.0186L127.807 17.0969H130.875L126.847 21.1949Z" fill="#A0AEC0"/>
<path d="M17.999 8.46412L28.0008 14.2056V25.745L18.0272 31.5218L8.03251 25.7944V14.262L17.999 8.46412ZM17.999 0L14.3312 2.11603L4.34356 7.91395L0.675781 10.03V30.0406L4.34356 32.1566L14.3453 37.8981L18.0131 40.0141L21.6809 37.8981L31.6474 32.1143L35.3152 29.9982V9.95944L31.6474 7.84341L21.6527 2.11603L17.9849 0H17.999Z" fill="#A0AEC0"/>
</g>
<defs>
<clipPath id="clip0_452957_61360">
<rect width="130.242" height="40" fill="white" transform="translate(0.675781)"/>
</clipPath>
</defs>
</svg>
