<svg width="168" height="42" viewBox="0 0 168 42" fill="none" xmlns="http://www.w3.org/2000/svg">
<g clip-path="url(#clip0_452327_2887)">
<path d="M48.2534 24.151C48.2534 24.4444 48.0063 24.6915 47.6975 24.6915H37.46C37.7225 27.2238 39.6217 29.54 42.3085 29.54C44.146 29.54 45.5048 28.8451 46.5239 27.3782C46.632 27.2238 46.7864 27.1157 46.9717 27.1157C47.2651 27.1157 47.4813 27.3319 47.4813 27.6253C47.4813 27.7334 47.4504 27.8106 47.4041 27.8878C46.3695 29.679 44.3159 30.5591 42.3085 30.5591C38.8651 30.5591 36.3945 27.4709 36.3945 24.1819C36.3945 20.8775 38.8497 17.8047 42.3085 17.8047C45.7519 17.8047 48.2379 20.862 48.2534 24.151ZM47.157 23.6723C46.9408 21.14 44.9953 18.8238 42.3085 18.8238C39.6217 18.8238 37.7225 21.14 37.46 23.6723H47.157Z" fill="#A0AEC0"/>
<path d="M60.6833 18.051C60.9767 18.051 61.1928 18.3135 61.1928 18.5606C61.1928 18.854 60.9767 19.0701 60.6833 19.0701H57.9347V29.8635C57.9347 30.126 57.7186 30.3731 57.4252 30.3731C57.1318 30.3731 56.9156 30.1106 56.9156 29.8635V19.0701H54.2752C53.9818 19.0701 53.7656 18.854 53.7656 18.5606C53.7656 18.2981 53.9818 18.051 54.2752 18.051H56.9156V14.1135C56.9156 13.851 57.1164 13.604 57.3789 13.5731C57.7031 13.5422 57.9502 13.7738 57.9502 14.0826V18.051H60.6833Z" fill="#A0AEC0"/>
<path d="M77.4526 23.2693V29.8009C77.4526 30.0943 77.1901 30.3105 76.943 30.3105C76.6497 30.3105 76.4335 30.0943 76.4335 29.8009V23.2693C76.4335 21.0612 75.1827 18.8686 72.7276 18.8686C69.5776 18.8686 68.2188 21.6171 68.4041 24.4428C68.4041 24.52 68.435 24.8443 68.435 24.8906V29.7855C68.435 30.048 68.2342 30.295 67.9717 30.3259C67.6475 30.3568 67.4004 30.1252 67.4004 29.8164V8.33768C67.4004 8.07518 67.6166 7.82812 67.9099 7.82812C68.2033 7.82812 68.4195 8.09062 68.4195 8.33768V20.4744C69.2997 18.8994 70.8746 17.834 72.7121 17.834C75.7386 17.834 77.4526 20.4744 77.4526 23.2693Z" fill="#A0AEC0"/>
<path d="M95.8432 24.151C95.8432 24.4444 95.5962 24.6915 95.2873 24.6915H85.0498C85.3123 27.2238 87.2116 29.54 89.8984 29.54C91.7359 29.54 93.0947 28.8451 94.1138 27.3782C94.2219 27.2238 94.3763 27.1157 94.5616 27.1157C94.855 27.1157 95.0711 27.3319 95.0711 27.6253C95.0711 27.7334 95.0403 27.8106 94.9939 27.8878C93.9594 29.679 91.9057 30.5591 89.8984 30.5591C86.455 30.5591 83.9844 27.4709 83.9844 24.1819C83.9844 20.8775 86.4395 17.8047 89.8984 17.8047C93.3263 17.8047 95.8123 20.862 95.8432 24.151ZM94.7314 23.6723C94.5153 21.14 92.5697 18.8238 89.8829 18.8238C87.2116 18.8238 85.2969 21.14 85.0344 23.6723H94.7314Z" fill="#A0AEC0"/>
<path d="M108.412 18.5295C108.412 18.8537 108.227 19.039 107.934 19.0853C104.923 19.5331 103.564 21.9883 103.564 24.8449V29.7397C103.564 30.0022 103.363 30.2493 103.101 30.2802C102.776 30.3111 102.529 30.0795 102.529 29.7706V18.6067C102.529 18.3442 102.73 18.0971 102.993 18.0662C103.317 18.0353 103.564 18.267 103.564 18.5758V20.8456C104.413 19.4096 106.096 18.0508 107.857 18.0508C108.119 18.0508 108.412 18.2361 108.412 18.5295Z" fill="#A0AEC0"/>
<path d="M125.258 24.151C125.258 24.4444 125.011 24.6915 124.702 24.6915H114.465C114.727 27.2238 116.627 29.54 119.313 29.54C121.151 29.54 122.51 28.8451 123.529 27.3782C123.637 27.2238 123.791 27.1157 123.977 27.1157C124.27 27.1157 124.486 27.3319 124.486 27.6253C124.486 27.7334 124.455 27.8106 124.409 27.8878C123.374 29.679 121.321 30.5591 119.313 30.5591C115.87 30.5591 113.399 27.4709 113.399 24.1819C113.399 20.8775 115.855 17.8047 119.313 17.8047C122.757 17.8047 125.243 20.862 125.258 24.151ZM124.162 23.6723C123.946 21.14 122 18.8238 119.313 18.8238C116.627 18.8238 114.727 21.14 114.465 23.6723H124.162Z" fill="#A0AEC0"/>
<path d="M141.812 18.6532V22.1892V29.8635C141.812 30.1569 141.549 30.373 141.302 30.373C141.009 30.373 140.792 30.1569 140.792 29.8635V27.7326C139.943 29.4157 138.445 30.6355 136.531 30.6355C133.489 30.6355 131.806 27.9951 131.806 25.2002V18.6377C131.806 18.3752 132.022 18.1282 132.315 18.1282C132.609 18.1282 132.825 18.3907 132.825 18.6377V25.2002C132.825 27.4083 134.076 29.601 136.531 29.601C139.974 29.601 140.792 26.3738 140.792 22.8069V18.6223C140.792 18.3135 141.117 18.0047 141.487 18.1436C141.673 18.2363 141.812 18.437 141.812 18.6532Z" fill="#A0AEC0"/>
<path d="M167.737 23.2249V29.7874C167.737 30.0808 167.475 30.297 167.228 30.297C166.934 30.297 166.718 30.0808 166.718 29.7874V23.2249C166.718 21.0168 165.467 18.8551 163.012 18.8551C159.924 18.8551 158.75 22.1595 158.75 24.7227V29.7874C158.75 30.0808 158.488 30.297 158.241 30.297C157.948 30.297 157.731 30.0808 157.731 29.7874V23.2249C157.731 21.0168 156.481 18.8551 154.025 18.8551C150.906 18.8551 149.625 21.3102 149.733 24.5837C149.733 24.6609 149.764 24.7999 149.733 24.8462V29.772C149.733 30.0345 149.532 30.2815 149.27 30.3124C148.945 30.3433 148.698 30.1117 148.698 29.8028V18.608C148.698 18.3455 148.899 18.0984 149.161 18.0676C149.486 18.0367 149.733 18.2683 149.733 18.5771V20.4455C150.613 18.8705 152.188 17.8359 154.025 17.8359C156.11 17.8359 157.731 19.1639 158.395 21.094C159.245 19.1793 160.897 17.8359 163.012 17.8359C166.023 17.8359 167.737 20.4455 167.737 23.2249Z" fill="#A0AEC0"/>
<path opacity="0.6" d="M13.7888 15.5664L0.972656 21.3877L13.7888 28.9693L26.6204 21.3877L13.7888 15.5664Z" fill="#A0AEC0"/>
<path opacity="0.45" d="M0.972656 21.3873L13.7888 28.9689V15.566V0.109375L0.972656 21.3873Z" fill="#A0AEC0"/>
<path opacity="0.8" d="M13.7891 0.109375V15.566V28.9689L26.6207 21.3873L13.7891 0.109375Z" fill="#A0AEC0"/>
<path opacity="0.45" d="M0.972656 23.8242L13.7888 41.8904V31.3904L0.972656 23.8242Z" fill="#A0AEC0"/>
<path opacity="0.8" d="M13.7891 31.3904V41.8904L26.6207 23.8242L13.7891 31.3904Z" fill="#A0AEC0"/>
</g>
<defs>
<clipPath id="clip0_452327_2887">
<rect width="166.765" height="42" fill="white" transform="translate(0.972656)"/>
</clipPath>
</defs>
</svg>
